<svg id="visual" viewBox="0 0 900 600" width="900" height="600" xmlns="http://www.w3.org/2000/svg" xmlns:xlink="http://www.w3.org/1999/xlink" version="1.1"><path d="M0 366L21.5 367.8C43 369.7 86 373.3 128.8 379.2C171.7 385 214.3 393 257.2 404.5C300 416 343 431 385.8 428.3C428.7 425.7 471.3 405.3 514.2 398.7C557 392 600 399 642.8 406.7C685.7 414.3 728.3 422.7 771.2 422.2C814 421.7 857 412.3 878.5 407.7L900 403L900 601L878.5 601C857 601 814 601 771.2 601C728.3 601 685.7 601 642.8 601C600 601 557 601 514.2 601C471.3 601 428.7 601 385.8 601C343 601 300 601 257.2 601C214.3 601 171.7 601 128.8 601C86 601 43 601 21.5 601L0 601Z" fill="#fa7268"></path><path d="M0 418L21.5 423.2C43 428.3 86 438.7 128.8 446.7C171.7 454.7 214.3 460.3 257.2 454.7C300 449 343 432 385.8 434.3C428.7 436.7 471.3 458.3 514.2 457.7C557 457 600 434 642.8 422.3C685.7 410.7 728.3 410.3 771.2 408C814 405.7 857 401.3 878.5 399.2L900 397L900 601L878.5 601C857 601 814 601 771.2 601C728.3 601 685.7 601 642.8 601C600 601 557 601 514.2 601C471.3 601 428.7 601 385.8 601C343 601 300 601 257.2 601C214.3 601 171.7 601 128.8 601C86 601 43 601 21.5 601L0 601Z" fill="#ef5f67"></path><path d="M0 457L21.5 454C43 451 86 445 128.8 452.8C171.7 460.7 214.3 482.3 257.2 489C300 495.7 343 487.3 385.8 481.8C428.7 476.3 471.3 473.7 514.2 477.3C557 481 600 491 642.8 496.7C685.7 502.3 728.3 503.7 771.2 504.2C814 504.7 857 504.3 878.5 504.2L900 504L900 601L878.5 601C857 601 814 601 771.2 601C728.3 601 685.7 601 642.8 601C600 601 557 601 514.2 601C471.3 601 428.7 601 385.8 601C343 601 300 601 257.2 601C214.3 601 171.7 601 128.8 601C86 601 43 601 21.5 601L0 601Z" fill="#e34c67"></path><path d="M0 516L21.5 511.7C43 507.3 86 498.7 128.8 496.5C171.7 494.3 214.3 498.7 257.2 497.2C300 495.7 343 488.3 385.8 490.5C428.7 492.7 471.3 504.3 514.2 510.8C557 517.3 600 518.7 642.8 515.2C685.7 511.7 728.3 503.3 771.2 504.8C814 506.3 857 517.7 878.5 523.3L900 529L900 601L878.5 601C857 601 814 601 771.2 601C728.3 601 685.7 601 642.8 601C600 601 557 601 514.2 601C471.3 601 428.7 601 385.8 601C343 601 300 601 257.2 601C214.3 601 171.7 601 128.8 601C86 601 43 601 21.5 601L0 601Z" fill="#d53867"></path><path d="M0 529L21.5 531.3C43 533.7 86 538.3 128.8 542.3C171.7 546.3 214.3 549.7 257.2 552.5C300 555.3 343 557.7 385.8 559.8C428.7 562 471.3 564 514.2 565C557 566 600 566 642.8 565.3C685.7 564.7 728.3 563.3 771.2 556.5C814 549.7 857 537.3 878.5 531.2L900 525L900 601L878.5 601C857 601 814 601 771.2 601C728.3 601 685.7 601 642.8 601C600 601 557 601 514.2 601C471.3 601 428.7 601 385.8 601C343 601 300 601 257.2 601C214.3 601 171.7 601 128.8 601C86 601 43 601 21.5 601L0 601Z" fill="#c62368"></path></svg>